<?xml version="1.0" encoding="utf-8"?>
<!-- Uploaded to: SVG Repo, www.svgrepo.com, Generator: SVG Repo Mixer Tools -->
<svg width="800px" height="800px" viewBox="0 0 1024 1024" class="icon"  version="1.1" xmlns="http://www.w3.org/2000/svg"><path d="M850.903995 414.630553h-0.974739V367.987457c0-65.413986-62.100693-126.406834-95.553074-159.147615l-7.470267-7.406787C648.55661 103.086822 607.179356 94.83533 573.138241 94.83533l-11.235094-0.06348H293.947238c-23.191003 0-39.365319 15.91425-39.365319 38.717199v129.78668h-82.302974c-42.09295 0-76.392084 34.233606-76.392084 76.392084V851.08727c0 41.251316 32.869791 74.769226 73.794487 76.196522 0.585662 0 0.974739 0.263139 1.559377 0.263139H850.902971c42.158478 0 76.455565-34.300158 76.455565-76.458637V491.022637c0.001024-42.096021-34.296063-76.392084-76.454541-76.392084z" fill="#27323A" /><path d="M711.632041 236.707953l7.795863 7.72931c11.368199 11.171613 27.99712 27.671525 43.263251 46.316477-29.360936-9.029645-60.996944-11.108132-89.513175-12.279457-1.103748-20.331291-4.612603-57.358056-15.980802-91.850705 15.26613 12.601981 33.128834 28.775273 54.434863 50.084375z" fill="#F4CE73" /><path d="M304.469707 144.660662h257.301359l11.238165 0.063481c5.783928 0 13.316653 0.066553 24.62137 4.094517l3.312269 3.442303c29.101893 28.775273 39.55781 100.687859 39.55781 142.065112 0 8.963092 7.01771 16.303326 15.980802 16.629946l6.106452 0.259043c44.237989 1.689411 99.320972 3.831379 132.449806 33.844529l0.652215 0.585663c2.597597 7.792791 4.546051 15.588654 4.546051 23.058921 0 0-0.066553 25.596109-0.066553 45.9274H565.474459c-39.950981 0-74.117011 54.238277-88.994065 54.238278H304.469707V144.660662z" fill="#FFFFFF" /><path d="M188.323228 545.260915v306.541027c0 13.383205-5.325228 24.751404-21.695106 24.881437-14.421425-0.130033-20.853472-11.108132-20.853473-25.596109V339.667813c0-14.616987 11.89038-26.504296 26.504296-26.504295h82.302974v156.74558c-37.286832 5.066185-66.258691 36.702193-66.258691 75.351817z" fill="#79CCBF" /><path d="M877.470747 851.08727c0 14.616987-11.949766 26.570848-26.566752 26.570848H234.250628c0.063481-0.325596 0.130033-0.522182 0.196586-0.781224 1.427296-7.403715 3.764826-14.032348 3.764826-22.539812V545.260915c0-14.613915 11.952837-26.504296 26.570848-26.504296h211.699554c25.203961 0 42.029469-15.588654 58.399347-30.724751 7.792791-7.2102 23.970179-22.217288 31.113827-23.51455h284.909403c14.616987 0 26.566753 11.886285 26.566752 26.504296V851.08727z" fill="#F4CE73" /><path d="M776.719407 589.954533H571.775449c-11.949766 0-21.631625 9.678788-21.631625 21.631625 0 12.016318 9.68186 21.695106 21.631625 21.695106h204.944982c11.89038 0 21.568144-9.678788 21.568145-21.695106 0-11.953861-9.678788-21.631625-21.569169-21.631625zM776.719407 685.57416H571.775449c-11.949766 0-21.631625 9.678788-21.631625 21.631625 0 11.949766 9.68186 21.628554 21.631625 21.628554h204.944982c11.89038 0 21.568144-9.678788 21.568145-21.628554 0-11.953861-9.678788-21.631625-21.569169-21.631625z" fill="#27323A" /></svg>